<svg width="40" height="40" viewBox="0 0 40 40" fill="none" xmlns="http://www.w3.org/2000/svg">
<path fill-rule="evenodd" clip-rule="evenodd" d="M40 20C40 31.0457 31.0457 40 20 40C8.9543 40 0 31.0457 0 20C0 8.9543 8.9543 0 20 0C31.0457 0 40 8.9543 40 20ZM25.9341 21.1159L26.3364 17.6318C26.3482 17.5402 26.3406 17.4471 26.3139 17.3587C26.2873 17.2703 26.2422 17.1885 26.1816 17.1187C26.1211 17.0489 26.0465 16.9928 25.9627 16.9539C25.8789 16.915 25.7878 16.8943 25.6955 16.8932H21.6341V13.9818C21.6341 12.6682 21.9932 11.7591 23.8409 11.7591H25.55C25.6362 11.7582 25.7213 11.7403 25.8005 11.7065C25.8797 11.6726 25.9515 11.6234 26.0117 11.5618C26.0718 11.5001 26.1193 11.4272 26.1512 11.3472C26.1831 11.2671 26.1989 11.1816 26.1977 11.0955V8.16364C26.1989 8.07749 26.1831 7.99195 26.1512 7.91193C26.1193 7.83191 26.0718 7.75898 26.0117 7.69733C25.9515 7.63567 25.8797 7.5865 25.8005 7.55264C25.7213 7.51878 25.6362 7.50089 25.55 7.5H22.7636C19.3636 7.5 17.0455 9.625 17.0455 13.5295V16.8932H14.3045C14.2186 16.8944 14.1337 16.9125 14.0547 16.9465C13.9758 16.9805 13.9043 17.0297 13.8444 17.0913C13.7844 17.1529 13.7372 17.2258 13.7054 17.3056C13.6736 17.3855 13.6579 17.4709 13.6591 17.5568L13.6727 21.0409C13.6718 21.1266 13.6878 21.2116 13.7198 21.291C13.7517 21.3705 13.799 21.4429 13.8589 21.5041C13.9189 21.5653 13.9903 21.6141 14.0691 21.6478C14.1479 21.6814 14.2325 21.6991 14.3182 21.7H17.0455V32.0273C17.043 32.0885 17.0529 32.1495 17.0747 32.2068C17.0964 32.2641 17.1295 32.3164 17.172 32.3605C17.2144 32.4047 17.2654 32.4398 17.3217 32.4637C17.3781 32.4877 17.4387 32.5 17.5 32.5H21.1841C21.3065 32.497 21.4228 32.446 21.5078 32.358C21.5929 32.2699 21.6399 32.152 21.6386 32.0295L21.6568 21.7H25.2932C25.453 21.6981 25.6066 21.6376 25.7247 21.5299C25.8429 21.4222 25.9174 21.2749 25.9341 21.1159Z" fill="black"/>
</svg>
