<svg width="40" height="41" viewBox="0 0 40 41" fill="none" xmlns="http://www.w3.org/2000/svg">
<g clip-path="url(#clip0_1_190)">
<path d="M23.8281 20.1477C23.8281 22.262 22.1143 23.9758 20 23.9758C17.8857 23.9758 16.1719 22.262 16.1719 20.1477C16.1719 18.0334 17.8857 16.3196 20 16.3196C22.1143 16.3196 23.8281 18.0334 23.8281 20.1477Z" fill="#FDE374"/>
<path d="M28.9526 13.3746C28.7686 12.8759 28.475 12.4246 28.0936 12.0541C27.7231 11.6726 27.272 11.379 26.7731 11.195C26.3684 11.0378 25.7605 10.8508 24.6408 10.7998C23.4296 10.7446 23.0664 10.7327 20 10.7327C16.9333 10.7327 16.5701 10.7443 15.3592 10.7995C14.2395 10.8508 13.6313 11.0378 13.2269 11.195C12.728 11.379 12.2766 11.6726 11.9064 12.0541C11.525 12.4246 11.2314 12.8756 11.0471 13.3746C10.8899 13.7792 10.7028 14.3875 10.6519 15.5071C10.5966 16.7181 10.5847 17.0812 10.5847 20.1479C10.5847 23.2144 10.5966 23.5775 10.6519 24.7888C10.7028 25.9084 10.8899 26.5164 11.0471 26.921C11.2314 27.42 11.5247 27.871 11.9061 28.2415C12.2766 28.623 12.7277 28.9166 13.2266 29.1006C13.6313 29.2581 14.2395 29.4451 15.3592 29.4961C16.5701 29.5513 16.933 29.5629 19.9997 29.5629C23.0667 29.5629 23.4299 29.5513 24.6405 29.4961C25.7602 29.4451 26.3684 29.2581 26.7731 29.1006C27.7747 28.7142 28.5663 27.9226 28.9526 26.921C29.1098 26.5164 29.2969 25.9084 29.3481 24.7888C29.4034 23.5775 29.415 23.2144 29.415 20.1479C29.415 17.0812 29.4034 16.7181 29.3481 15.5071C29.2972 14.3875 29.1101 13.7792 28.9526 13.3746ZM20 26.0449C16.7429 26.0449 14.1025 23.4048 14.1025 20.1476C14.1025 16.8905 16.7429 14.2504 20 14.2504C23.2568 14.2504 25.8972 16.8905 25.8972 20.1476C25.8972 23.4048 23.2568 26.0449 20 26.0449ZM26.1304 15.3954C25.3693 15.3954 24.7522 14.7784 24.7522 14.0173C24.7522 13.2562 25.3693 12.6391 26.1304 12.6391C26.8915 12.6391 27.5085 13.2562 27.5085 14.0173C27.5082 14.7784 26.8915 15.3954 26.1304 15.3954Z" fill="#FDE374"/>
<path d="M20 0.147705C8.95599 0.147705 0 9.1037 0 20.1477C0 31.1917 8.95599 40.1477 20 40.1477C31.044 40.1477 40 31.1917 40 20.1477C40 9.1037 31.044 0.147705 20 0.147705ZM31.4151 24.8825C31.3596 26.105 31.1652 26.9397 30.8813 27.6703C30.2847 29.213 29.0652 30.4324 27.5226 31.0291C26.7923 31.3129 25.9573 31.507 24.7351 31.5628C23.5104 31.6187 23.1192 31.6321 20.0003 31.6321C16.8811 31.6321 16.4902 31.6187 15.2652 31.5628C14.043 31.507 13.208 31.3129 12.4777 31.0291C11.7111 30.7407 11.0172 30.2887 10.4434 29.7043C9.85931 29.1309 9.40735 28.4366 9.11896 27.6703C8.83514 26.94 8.64075 26.105 8.58521 24.8828C8.52875 23.6578 8.51562 23.2666 8.51562 20.1477C8.51562 17.0288 8.52875 16.6376 8.5849 15.4129C8.64044 14.1904 8.83453 13.3557 9.11835 12.6251C9.40674 11.8588 9.85901 11.1646 10.4434 10.5911C11.0168 10.0067 11.7111 9.55475 12.4774 9.26636C13.208 8.98254 14.0427 8.78845 15.2652 8.7326C16.4899 8.67676 16.8811 8.66333 20 8.66333C23.1189 8.66333 23.5101 8.67676 24.7348 8.73291C25.9573 8.78845 26.792 8.98254 27.5226 9.26605C28.2889 9.55444 28.9832 10.0067 29.5569 10.5911C30.141 11.1649 30.5933 11.8588 30.8813 12.6251C31.1655 13.3557 31.3596 14.1904 31.4154 15.4129C31.4713 16.6376 31.4844 17.0288 31.4844 20.1477C31.4844 23.2666 31.4713 23.6578 31.4151 24.8825Z" fill="#FDE374"/>
</g>
<defs>
<clipPath id="clip0_1_190">
<rect width="40" height="40" fill="white" transform="translate(0 0.147705)"/>
</clipPath>
</defs>
</svg>
