<svg width="40" height="41" viewBox="0 0 40 41" fill="none" xmlns="http://www.w3.org/2000/svg">
<g clip-path="url(#clip0_1_194)">
<path fill-rule="evenodd" clip-rule="evenodd" d="M40 20.1477C40 31.1934 31.0457 40.1477 20 40.1477C8.9543 40.1477 0 31.1934 0 20.1477C0 9.10201 8.9543 0.147705 20 0.147705C31.0457 0.147705 40 9.10201 40 20.1477ZM25.9341 21.2636L26.3364 17.7795C26.3482 17.6879 26.3406 17.5948 26.3139 17.5064C26.2873 17.418 26.2422 17.3362 26.1816 17.2664C26.1211 17.1966 26.0465 17.1405 25.9627 17.1016C25.8789 17.0627 25.7878 17.042 25.6955 17.0409H21.6341V14.1295C21.6341 12.8159 21.9932 11.9068 23.8409 11.9068H25.55C25.6362 11.9059 25.7213 11.888 25.8005 11.8542C25.8797 11.8203 25.9515 11.7711 26.0117 11.7095C26.0718 11.6478 26.1193 11.5749 26.1512 11.4949C26.1831 11.4148 26.1989 11.3293 26.1977 11.2432V8.31134C26.1989 8.22519 26.1831 8.13966 26.1512 8.05964C26.1193 7.97962 26.0718 7.90669 26.0117 7.84503C25.9515 7.78337 25.8797 7.73421 25.8005 7.70034C25.7213 7.66648 25.6362 7.64859 25.55 7.64771H22.7636C19.3636 7.64771 17.0455 9.77271 17.0455 13.6773V17.0409H14.3045C14.2186 17.0421 14.1337 17.0602 14.0547 17.0942C13.9758 17.1282 13.9043 17.1774 13.8444 17.239C13.7844 17.3006 13.7372 17.3735 13.7054 17.4533C13.6736 17.5332 13.6579 17.6186 13.6591 17.7045L13.6727 21.1886C13.6718 21.2743 13.6878 21.3593 13.7198 21.4388C13.7517 21.5182 13.799 21.5906 13.8589 21.6518C13.9189 21.7131 13.9903 21.7619 14.0691 21.7955C14.1479 21.8291 14.2325 21.8468 14.3182 21.8477H17.0455V32.175C17.043 32.2362 17.0529 32.2973 17.0747 32.3545C17.0964 32.4118 17.1295 32.4641 17.172 32.5082C17.2144 32.5524 17.2654 32.5875 17.3217 32.6115C17.3781 32.6354 17.4387 32.6478 17.5 32.6477H21.1841C21.3065 32.6447 21.4228 32.5937 21.5078 32.5057C21.5929 32.4176 21.6399 32.2997 21.6386 32.1772L21.6568 21.8477H25.2932C25.453 21.8458 25.6066 21.7853 25.7247 21.6776C25.8429 21.5699 25.9174 21.4226 25.9341 21.2636Z" fill="#FDE374"/>
</g>
<defs>
<clipPath id="clip0_1_194">
<rect width="40" height="40" fill="white" transform="translate(0 0.147705)"/>
</clipPath>
</defs>
</svg>
