<svg width="40" height="41" viewBox="0 0 40 41" fill="none" xmlns="http://www.w3.org/2000/svg">
<g clip-path="url(#clip0_1_200)">
<path d="M17.2263 23.374L22.7737 20.1556L17.2263 16.9214V23.374Z" fill="#FDE374"/>
<path d="M20 0.147705C16.0444 0.147705 12.1776 1.32068 8.8886 3.51831C5.59962 5.71594 3.03617 8.83952 1.52242 12.494C0.00866568 16.1486 -0.387401 20.1699 0.384303 24.0495C1.15601 27.9291 3.06082 31.4928 5.85787 34.2898C8.65492 37.0869 12.2186 38.9917 16.0982 39.7634C19.9778 40.5351 23.9992 40.1391 27.6537 38.6253C31.3082 37.1115 34.4318 34.5481 36.6294 31.2591C38.827 27.9701 40 24.1033 40 20.1477C40 14.8434 37.8929 9.7563 34.1421 6.00557C30.3914 2.25484 25.3043 0.147705 20 0.147705ZM30.5263 23.6872C30.5267 24.2103 30.4239 24.7283 30.224 25.2117C30.0241 25.695 29.7308 26.1343 29.3611 26.5043C28.9913 26.8743 28.5523 27.1678 28.069 27.3681C27.5858 27.5683 27.0678 27.6714 26.5447 27.6714H13.4553C12.9322 27.6714 12.4142 27.5683 11.931 27.3681C11.4477 27.1678 11.0087 26.8743 10.6389 26.5043C10.2692 26.1343 9.97596 25.695 9.77602 25.2117C9.57608 24.7283 9.47335 24.2103 9.47369 23.6872V16.6082C9.47335 16.0851 9.57608 15.5671 9.77602 15.0837C9.97596 14.6004 10.2692 14.1611 10.6389 13.7911C11.0087 13.4211 11.4477 13.1276 11.931 12.9274C12.4142 12.7271 12.9322 12.624 13.4553 12.624H26.5447C27.0678 12.624 27.5858 12.7271 28.069 12.9274C28.5523 13.1276 28.9913 13.4211 29.3611 13.7911C29.7308 14.1611 30.0241 14.6004 30.224 15.0837C30.4239 15.5671 30.5267 16.0851 30.5263 16.6082V23.6872Z" fill="#FDE374"/>
</g>
<defs>
<clipPath id="clip0_1_200">
<rect width="40" height="40" fill="white" transform="translate(0 0.147705)"/>
</clipPath>
</defs>
</svg>
