<svg width="36" height="37" viewBox="0 0 36 37" fill="none" xmlns="http://www.w3.org/2000/svg">
<path d="M18 0.650024C8.07484 0.650024 0 8.72487 0 18.65C0 28.5745 8.07484 36.65 18 36.65C27.9244 36.65 36 28.5745 36 18.65C36 8.72487 27.9259 0.650024 18 0.650024ZM22.4764 19.2837H19.548V29.7215H15.2086C15.2086 29.7215 15.2086 24.0183 15.2086 19.2837H13.1458V15.5947H15.2086V13.2086C15.2086 11.4996 16.0206 8.82927 19.5879 8.82927L22.8034 8.8416V12.4226C22.8034 12.4226 20.8494 12.4226 20.4695 12.4226C20.0896 12.4226 19.5494 12.6126 19.5494 13.4275V15.5954H22.8556L22.4764 19.2837Z" fill="url(#paint0_linear_1_150)"/>
<defs>
<linearGradient id="paint0_linear_1_150" x1="18" y1="0.650024" x2="18" y2="36.65" gradientUnits="userSpaceOnUse">
<stop stop-color="#4BADF8"/>
<stop offset="1" stop-color="#1E65D8"/>
</linearGradient>
</defs>
</svg>
