<svg width="36" height="37" viewBox="0 0 36 37" fill="none" xmlns="http://www.w3.org/2000/svg">
<rect x="0.5" y="1.15002" width="35" height="35" rx="17.5" fill="white"/>
<g clip-path="url(#clip0_1_154)">
<path d="M11.3189 21.1535L10.4835 24.2722L7.43011 24.3368C6.51759 22.6443 6 20.7078 6 18.65C6 16.6601 6.48394 14.7836 7.34175 13.1313H7.34241L10.0608 13.6297L11.2516 16.3318C11.0024 17.0584 10.8665 17.8384 10.8665 18.65C10.8666 19.5309 11.0262 20.3749 11.3189 21.1535Z" fill="#FBBB00"/>
<path d="M29.7903 16.4083C29.9282 17.1342 30 17.8838 30 18.65C30 19.5091 29.9097 20.3472 29.7376 21.1555C29.1535 23.9063 27.6271 26.3083 25.5126 28.008L25.5119 28.0074L22.088 27.8327L21.6034 24.8076C23.0065 23.9848 24.103 22.6971 24.6805 21.1555H18.2638V16.4083H24.7742H29.7903Z" fill="#518EF8"/>
<path d="M25.5119 28.0074L25.5125 28.008C23.4561 29.661 20.8437 30.65 18 30.65C13.4301 30.65 9.45694 28.0958 7.43011 24.3368L11.3189 21.1536C12.3323 23.8582 14.9413 25.7835 18 25.7835C19.3147 25.7835 20.5464 25.428 21.6033 24.8076L25.5119 28.0074Z" fill="#28B446"/>
<path d="M25.6595 9.41265L21.7721 12.5953C20.6782 11.9116 19.3852 11.5166 18 11.5166C14.8721 11.5166 12.2143 13.5302 11.2516 16.3318L7.34239 13.1313H7.34174C9.33889 9.28079 13.3622 6.65002 18 6.65002C20.9116 6.65002 23.5813 7.68718 25.6595 9.41265Z" fill="#F14336"/>
</g>
<rect x="0.5" y="1.15002" width="35" height="35" rx="17.5" stroke="#DBDBDB"/>
<defs>
<clipPath id="clip0_1_154">
<rect width="24" height="24" fill="white" transform="translate(6 6.65002)"/>
</clipPath>
</defs>
</svg>
