<svg width="73" height="38" viewBox="0 0 73 38" fill="none" xmlns="http://www.w3.org/2000/svg">
<path d="M23.75 8.2H8.15V15.1C8.81667 14.3667 9.75 13.7667 10.95 13.3C12.15 12.8333 13.45 12.6 14.85 12.6C17.35 12.6 19.4167 13.1667 21.05 14.3C22.7167 15.4333 23.9333 16.9 24.7 18.7C25.4667 20.5 25.85 22.45 25.85 24.55C25.85 28.45 24.75 31.55 22.55 33.85C20.35 36.1167 17.25 37.25 13.25 37.25C10.5833 37.25 8.26667 36.8 6.3 35.9C4.33333 34.9667 2.81667 33.6833 1.75 32.05C0.683333 30.4167 0.1 28.5333 0 26.4H8.35C8.55 27.4333 9.03333 28.3 9.8 29C10.5667 29.6667 11.6167 30 12.95 30C14.5167 30 15.6833 29.5 16.45 28.5C17.2167 27.5 17.6 26.1667 17.6 24.5C17.6 22.8667 17.2 21.6167 16.4 20.75C15.6 19.8833 14.4333 19.45 12.9 19.45C11.7667 19.45 10.8333 19.7333 10.1 20.3C9.36667 20.8333 8.88333 21.55 8.65 22.45H0.4V0.700003H23.75V8.2Z" fill="black"/>
<path d="M35.4195 37.65C33.9195 37.65 32.6862 37.2167 31.7195 36.35C30.7862 35.45 30.3195 34.35 30.3195 33.05C30.3195 31.7167 30.7862 30.6 31.7195 29.7C32.6862 28.8 33.9195 28.35 35.4195 28.35C36.8862 28.35 38.0862 28.8 39.0195 29.7C39.9862 30.6 40.4695 31.7167 40.4695 33.05C40.4695 34.35 39.9862 35.45 39.0195 36.35C38.0862 37.2167 36.8862 37.65 35.4195 37.65Z" fill="black"/>
<path d="M44.6809 18.5C44.6809 12.7667 45.7809 8.25 47.9809 4.95C50.2142 1.65 53.7975 0 58.7309 0C63.6642 0 67.2309 1.65 69.4309 4.95C71.6642 8.25 72.7809 12.7667 72.7809 18.5C72.7809 24.3 71.6642 28.85 69.4309 32.15C67.2309 35.45 63.6642 37.1 58.7309 37.1C53.7975 37.1 50.2142 35.45 47.9809 32.15C45.7809 28.85 44.6809 24.3 44.6809 18.5ZM64.3809 18.5C64.3809 15.1333 64.0142 12.55 63.2809 10.75C62.5475 8.91667 61.0309 8 58.7309 8C56.4309 8 54.9142 8.91667 54.1809 10.75C53.4475 12.55 53.0809 15.1333 53.0809 18.5C53.0809 20.7667 53.2142 22.65 53.4809 24.15C53.7475 25.6167 54.2809 26.8167 55.0809 27.75C55.9142 28.65 57.1309 29.1 58.7309 29.1C60.3309 29.1 61.5309 28.65 62.3309 27.75C63.1642 26.8167 63.7142 25.6167 63.9809 24.15C64.2475 22.65 64.3809 20.7667 64.3809 18.5Z" fill="black"/>
</svg>
