<svg width="113" height="73" viewBox="0 0 113 73" fill="none" xmlns="http://www.w3.org/2000/svg">
<path fill-rule="evenodd" clip-rule="evenodd" d="M73.3377 43.9798C70.9505 40.6288 68.311 37.5588 65.1393 34.9716C65.1544 34.946 65.1697 34.9206 65.1849 34.8951L65.1941 34.8798C65.2063 34.8595 65.2184 34.8392 65.2304 34.8187C65.3007 34.8297 65.3716 34.8383 65.4424 34.8469C65.5994 34.866 65.7563 34.885 65.9057 34.9302C66.7429 35.1825 66.7978 35.1584 67.108 34.192C69.569 36.4893 71.6393 39.026 73.2812 42.0396C73.3826 41.9301 73.473 41.8381 73.554 41.7558C73.7058 41.6014 73.8241 41.4812 73.9174 41.3436C77.1252 36.6143 81.1039 32.6766 85.898 29.5584C88.8295 27.6521 91.4712 25.3902 93.7448 22.733C97.7664 18.0323 98.392 11.1579 94.3335 6.35252C91.5563 3.06483 87.9201 1.80549 83.7215 2.09246C79.6931 2.36737 76.9987 4.51925 75.5126 8.24153C75.3289 8.70173 75.1219 9.15289 74.8644 9.58372C74.9525 7.86493 75.4396 6.27871 76.3475 4.82354C78.396 1.53961 81.4676 0.16579 85.2204 0.0143985C87.9525 -0.0955677 90.5211 0.418863 92.9347 1.74674C95.9988 3.43314 97.9938 5.97216 99.1057 9.25156C100.976 14.7672 99.6688 19.6404 96.1109 24.0563C92.8135 28.1492 88.7045 31.2403 84.1168 33.7296C80.062 35.9304 76.8053 39.0185 74.0845 42.7054C73.9 42.9555 73.7499 43.2311 73.5876 43.5292L73.5874 43.5298C73.5088 43.6741 73.4273 43.8238 73.3377 43.9783V43.9798ZM45.4809 22.2278L45.4807 22.2283C45.3873 22.4284 45.2938 22.6285 45.1994 22.828L45.1971 22.8273C45.1182 22.8137 45.0393 22.7994 44.9603 22.7851L44.96 22.7851C44.9512 22.7413 44.9381 22.6966 44.9249 22.6518C44.8962 22.5542 44.8674 22.4564 44.8839 22.3671C44.9668 21.9121 45.0581 21.4589 45.1493 21.0058L45.1493 21.0054L45.1494 21.0051C45.2338 20.5861 45.3181 20.1671 45.3959 19.7467C45.688 18.1703 45.9748 16.5938 46.2488 15.0144C46.3625 14.3614 46.1351 13.9079 45.4666 13.6632C44.3065 13.2384 43.364 13.7257 42.9552 15.0927C42.6976 15.9539 42.4573 16.8201 42.217 17.6862L42.2169 17.6865L42.2168 17.6868C41.9156 18.7726 41.6144 19.8583 41.2794 20.9337C41.052 21.6636 40.7629 22.4544 40.266 23.0035C38.8584 24.5589 37.378 26.0492 35.8982 27.5388C35.636 27.8027 35.3739 28.0666 35.1121 28.3308C34.8697 28.5749 34.5362 28.7669 34.2095 28.8807C33.6178 29.087 33.2782 28.8573 33.3031 28.2246C33.3139 27.9527 33.3183 27.6779 33.3227 27.4025V27.4024V27.4023C33.3373 26.4859 33.3521 25.562 33.6027 24.7125C34.1068 23.0059 34.7236 21.3321 35.3403 19.6586L35.3404 19.6585C35.5849 18.9951 35.8293 18.3317 36.0667 17.6664C36.1533 17.4239 36.2443 17.1829 36.3353 16.9418L36.3353 16.9417L36.3353 16.9417C36.4642 16.6002 36.5932 16.2586 36.7097 15.9129C36.9378 15.2358 36.6954 14.6928 36.1751 14.2476C34.8833 13.1427 32.4539 13.798 31.9758 15.4264C31.8931 15.7082 31.8098 15.9901 31.7266 16.272C31.1419 18.2516 30.5563 20.2346 30.1246 22.2488C29.7038 24.2094 29.5916 26.2362 29.9454 28.2344C30.1879 29.6015 30.9151 30.7411 32.277 31.1779C33.6215 31.6087 34.9744 31.3474 36.0291 30.366C36.7183 29.7248 37.3441 29.0147 37.9697 28.3049L37.9697 28.3048L37.9701 28.3044L37.9704 28.3041C38.2124 28.0294 38.4545 27.7548 38.7002 27.4843C38.905 27.2579 39.1007 27.023 39.2963 26.788C39.3903 26.6751 39.4844 26.5621 39.5795 26.4501L39.6806 26.5026L39.7812 26.5548C39.7323 26.7515 39.6863 26.9491 39.6403 27.1468L39.6402 27.1472C39.5325 27.6097 39.4248 28.0724 39.2798 28.5229C39.0976 29.0863 39.1865 29.5698 39.5057 30.0413C40.1772 31.0333 41.3509 31.3285 42.4342 30.8262C43.2156 30.4639 43.6019 29.8169 43.8443 29.0547C44.5248 26.9178 45.4839 24.9121 46.7269 23.0532C48.0797 21.0294 49.4762 19.0274 51.6835 17.8095C51.9787 17.6466 52.292 17.517 52.6054 17.3875L52.6054 17.3874L52.6055 17.3874C52.7484 17.3283 52.8914 17.2692 53.0326 17.2069C53.0868 17.2566 53.1403 17.3056 53.1937 17.3553C53.1506 17.534 53.1096 17.7133 53.0686 17.8926L53.0685 17.893C52.9778 18.2894 52.8871 18.6857 52.7736 19.0756C52.5781 19.7474 52.3726 20.4167 52.1671 21.086C51.7453 22.4601 51.3236 23.8341 50.9879 25.2284C50.7478 26.2249 50.756 27.3125 50.8291 28.3459C50.9201 29.6414 52.4574 30.848 53.7034 30.5987C54.8522 30.3682 56.0108 30.0428 56.9187 29.2143L57.0903 29.058C57.6921 28.5098 58.2963 27.9596 58.8415 27.3585C59.437 26.701 60.0036 26.0173 60.5824 25.3189L60.5832 25.3179L60.5841 25.3169C60.8388 25.0095 61.0959 24.6993 61.3589 24.3871C61.3748 24.4327 61.3943 24.4788 61.4141 24.5252L61.4141 24.5253L61.4141 24.5253L61.4141 24.5253C61.4582 24.6293 61.5033 24.7353 61.5095 24.8436C61.5218 25.0635 61.5226 25.2844 61.5233 25.5052C61.5243 25.798 61.5253 26.0906 61.5532 26.3808C61.712 28.0198 62.3444 29.38 64.0074 29.9547C65.4694 30.4601 66.7967 30.0662 67.8792 29.0004C68.3654 28.5218 68.8057 27.9961 69.246 27.4704L69.246 27.4704L69.2462 27.4702C69.4488 27.2283 69.6514 26.9864 69.8584 26.7491C69.9356 26.6609 70.0155 26.5751 70.0994 26.485C70.1465 26.4344 70.1948 26.3825 70.2446 26.3281C70.2806 26.3757 70.3121 26.4123 70.338 26.4425C70.3827 26.4944 70.4109 26.5272 70.417 26.5639C70.4441 26.7275 70.461 26.8932 70.478 27.0589C70.4836 27.1143 70.4893 27.1698 70.4953 27.2252C70.67 28.8264 71.395 30.0624 72.9059 30.7283C74.9883 31.6456 76.8176 31.1681 78.4249 29.6406C80.1278 28.0228 81.3557 26.0637 82.421 23.994C82.4796 23.8802 82.4722 23.7326 82.4647 23.5849V23.5847V23.5845C82.4612 23.5163 82.4578 23.448 82.4609 23.3831C82.3915 23.393 82.3183 23.3966 82.2451 23.4002C82.0832 23.4083 81.9214 23.4164 81.8021 23.4916C81.6222 23.6053 81.4731 23.7676 81.324 23.9299C81.2599 23.9998 81.1957 24.0696 81.1291 24.1356C80.8025 24.4588 80.4782 24.7846 80.1539 25.1103L80.1535 25.1107L80.1527 25.1115C79.3605 25.9071 78.5684 26.7028 77.7429 27.4624C77.2272 27.9369 76.6151 28.3451 75.982 28.6464C74.8377 29.191 74.0562 28.6366 74.1639 27.3833C74.2204 26.7243 74.3175 26.0389 74.5584 25.4303C74.8095 24.7978 75.1024 24.182 75.3955 23.5661C75.6471 23.0371 75.8989 22.5079 76.1243 21.9679C76.3102 21.522 76.4796 20.9661 76.3772 20.5247C76.1853 19.694 75.1923 19.044 74.4214 19.0507C72.7704 19.0651 72.0981 19.4409 71.6954 20.5692C70.7009 23.3568 69.0778 25.7195 66.8584 27.6688C66.5482 27.9414 66.1718 28.1779 65.7849 28.3188C65.0561 28.5839 64.3966 28.1674 64.3515 27.3961L64.3404 27.2111C64.2957 26.4699 64.2497 25.7062 64.4011 24.9957C65.0531 21.9362 66.674 19.4469 69.1681 17.5715C70.5571 16.5276 71.8384 16.5517 72.9044 17.6807C73.8063 18.635 74.855 18.6546 75.9745 18.5017C76.6038 18.4158 77.1037 18.0174 77.2859 17.396C77.4703 16.7693 77.3476 16.1833 76.838 15.6832C74.1451 13.044 70.3907 12.6313 67.2295 14.677C64.9635 16.1434 63.6423 18.3412 62.6056 20.7545L62.5523 20.8792C62.3601 21.3303 62.159 21.8021 61.84 22.1509C59.9097 24.2659 57.8394 26.2204 55.1955 27.4398C55.0475 27.5082 54.8721 27.5162 54.6967 27.5242C54.6152 27.528 54.5336 27.5317 54.4547 27.5415C54.4621 27.477 54.4692 27.4125 54.4763 27.348C54.4945 27.1825 54.5127 27.0168 54.536 26.8516C54.545 26.7868 54.5744 26.7228 54.6045 26.6633C54.9244 26.0277 55.2456 25.3928 55.5669 24.7579C56.2095 23.4877 56.8522 22.2175 57.4841 20.942C57.5418 20.8256 57.5998 20.7093 57.6578 20.5931L57.6589 20.5908L57.659 20.5908C58.2756 19.3553 58.8921 18.12 59.0764 16.7143C59.3511 14.6197 58.182 12.9348 56.1403 12.6682C54.2379 12.4204 52.4431 12.7608 50.9299 14.033C48.7098 15.8994 47.366 18.3902 46.1005 20.93C45.8867 21.3587 45.6839 21.7931 45.4812 22.2274L45.4809 22.2278ZM72.9867 61.0685C72.9303 61.1118 72.8727 61.1561 72.8142 61.203L72.8157 61.2008C72.7922 61.1572 72.7704 61.1222 72.7518 61.0923C72.7186 61.0391 72.6959 61.0027 72.693 60.965C72.6872 60.8906 72.6898 60.8156 72.6923 60.7407V60.7406V60.7405V60.7404C72.6951 60.6593 72.6978 60.5783 72.69 60.498C72.6492 60.0791 72.6199 59.6576 72.5906 59.236C72.5227 58.2585 72.4548 57.2808 72.2428 56.3351C71.8423 54.5486 72.1487 52.9932 73.156 51.5124C73.3472 51.2307 73.5016 50.8805 73.5384 50.5469C73.6453 49.5828 73.1297 48.9697 72.3158 48.5162C71.49 48.056 70.7033 47.9898 69.967 48.6307C69.6026 48.9486 69.2526 49.3124 68.9936 49.7176C68.2602 50.8637 67.5372 52.0163 66.8141 53.169L66.8139 53.1694L66.8137 53.1697L66.813 53.1709C65.974 54.5083 65.1351 55.8457 64.2801 57.1727C62.8746 59.3547 60.9556 61.0629 58.9704 62.6906C58.7589 62.8641 58.4626 62.9341 58.1664 63.0041C58.0293 63.0365 57.8922 63.069 57.7636 63.1116C57.7303 62.9759 57.6824 62.8374 57.6344 62.699C57.5294 62.3957 57.4244 62.0922 57.473 61.8161C57.4854 61.7452 57.4977 61.6742 57.51 61.6032C57.5252 61.5154 57.5403 61.4276 57.5554 61.3396L57.5554 61.3396C57.7694 60.0957 57.9857 58.8383 58.4215 57.669C59.0244 56.0517 59.7164 54.4675 60.4084 52.8831L60.4085 52.883L60.4085 52.883L60.4085 52.8829C60.75 52.1011 61.0915 51.3192 61.4223 50.5333C61.8883 49.4253 61.2951 48.3362 60.1079 48.0658C58.8251 47.7736 57.9977 48.0432 57.5535 49.2514C56.6953 51.5855 55.8679 53.946 55.2747 56.357C54.7071 58.6625 53.7653 60.6743 52.0142 62.2786C51.3509 62.8857 50.583 63.2374 49.6427 63.1395C49.1519 63.0883 48.8869 62.8412 48.8869 62.381C48.8877 61.8056 48.9057 61.2181 49.0179 60.6562C49.6111 57.6939 50.9421 55.0223 52.3469 52.3839C52.4561 52.1793 52.5718 51.9779 52.6875 51.7766C52.8495 51.4947 53.0114 51.2128 53.1555 50.9219C53.565 50.0949 53.4799 48.9403 53.0026 48.4537C52.2912 47.7292 51.1906 47.5695 50.2187 48.0214C49.4199 48.3927 49.0405 49.1256 48.7446 49.8547L48.7167 49.9236C47.9083 51.9185 47.0974 53.9199 46.4432 55.9691C45.5805 58.6715 44.2382 61.0418 42.0226 62.8224C40.6456 63.9288 40.1729 63.6961 39.7106 61.9976C39.2638 60.3576 39.2891 58.6914 39.3143 57.0256V57.0255V57.0254C39.3225 56.4879 39.3306 55.9505 39.3229 55.414C39.3192 55.1903 39.4183 54.96 39.5139 54.7381C39.5351 54.6888 39.5561 54.6398 39.5759 54.5915C40.0171 53.5097 40.466 52.4306 40.9149 51.3516L40.9153 51.3505C41.9024 48.9779 42.8895 46.605 43.7955 44.202C44.4551 42.4519 44.9907 40.6538 45.526 38.8565C45.7152 38.221 45.9045 37.5856 46.0992 36.9525C46.3657 36.0863 46.2557 35.254 45.5737 34.6033C44.9142 33.9736 44.0981 34.0753 43.3039 34.2681C43.0073 34.3404 42.7152 34.4812 42.4539 34.6432C41.0168 35.5342 39.9583 36.7762 39.1528 38.251C37.7133 40.8864 37.0117 43.7704 36.4162 46.6717C35.7078 50.1198 35.7085 53.6274 35.7718 57.1328C35.7786 57.5222 35.7379 57.965 35.558 58.2949C34.8134 59.6635 34.0214 61.0064 33.2152 62.3396C32.9847 62.7202 32.7019 63.0706 32.42 63.4198L32.3336 63.5269C32.2935 63.5767 32.2536 63.6265 32.2139 63.6765C31.7893 64.2113 31.2074 64.4681 30.5592 64.2881C29.9449 64.1179 29.8839 63.4897 29.8379 62.97C29.7868 62.3976 29.792 61.8026 29.8899 61.2377C30.0817 60.1291 30.32 59.0283 30.5582 57.9277L30.5582 57.9276L30.5583 57.9275C30.5978 57.745 30.6373 57.5624 30.6766 57.3798C30.901 56.3366 30.6721 55.6829 29.8982 55.2468C28.4926 54.4544 27.005 55.1489 26.7122 56.7381C26.2868 59.0451 25.7621 61.3303 24.5914 63.3873C24.2608 63.9677 23.8113 64.482 23.3634 64.9944L23.3631 64.9948C23.2125 65.1671 23.062 65.3392 22.9164 65.5135C22.6401 65.8442 22.3329 65.7282 22.0454 65.4834C21.4228 64.9524 21.2218 64.2444 21.1578 63.4641C21.017 61.7476 21.3053 60.083 21.7887 58.4509C22.2283 56.9671 22.8607 55.5669 23.8928 54.3866C24.9581 53.168 25.659 53.0444 27.06 53.7893C27.1222 53.8226 27.1823 53.8636 27.2423 53.9045L27.2423 53.9046C27.3522 53.9796 27.4617 54.0543 27.5825 54.0801C27.702 54.1056 27.8224 54.1342 27.9433 54.1628C28.3827 54.267 28.828 54.3727 29.259 54.3384C29.9614 54.2827 30.5283 53.8278 30.715 53.1296C30.8979 52.4464 30.8738 51.7045 30.2302 51.2345C28.8675 50.2403 27.3551 49.5737 25.6319 49.7567C23.5254 49.9812 22.0386 51.2436 20.9124 52.936C19.6273 54.8672 19.0694 57.0627 18.757 59.3366C18.6885 59.8322 18.6019 60.3903 18.3279 60.7827C17.1299 62.4975 15.8698 64.1701 14.6107 65.8416L14.6104 65.8419L14.5735 65.8909C14.3536 66.1834 14.0479 66.4192 13.7536 66.6461L13.7386 66.6576C13.6181 66.7503 13.375 66.8294 13.2786 66.7691C13.1664 66.6991 13.1228 66.4724 13.1077 66.3082C13.0982 66.1978 13.1299 66.0829 13.1613 65.9689C13.1722 65.9297 13.183 65.8905 13.192 65.8517L13.4679 64.6723C13.8575 63.0063 14.247 61.3404 14.6405 59.6755L14.6737 59.5353C15.0522 57.9345 15.4294 56.3396 15.2458 54.663C15.0847 53.1883 13.9539 51.8921 12.4844 51.7542C10.1084 51.5313 8.38896 52.6581 7.24089 54.6367C5.82029 57.0861 4.98766 59.7614 4.5209 62.5512C4.50489 62.6468 4.47578 62.7399 4.44667 62.833C4.43335 62.8756 4.42003 62.9182 4.40798 62.961L4.23483 62.9693C4.20943 62.8373 4.18028 62.7057 4.15114 62.574C4.08611 62.2803 4.02108 61.9866 3.99768 61.6896C3.88777 60.2758 4.04436 58.8817 4.45766 57.5259C4.73781 56.6069 5.02888 55.691 5.31993 54.7752L5.31995 54.7751C5.84467 53.1241 6.36934 51.4732 6.82984 49.8042C7.63839 46.8728 8.1187 43.8826 7.87402 40.8194C7.72873 39.0064 6.65519 38.5485 5.08252 39.151C4.48627 39.38 3.87572 39.8169 3.50232 40.3275C2.81272 41.2705 2.11635 42.2775 1.74445 43.3674C1.21747 44.9137 0.852344 46.5429 0.652843 48.1653C0.348698 50.641 0.164254 53.1386 0.0754194 55.6317C-0.101497 60.5839 0.0294965 65.5339 0.503782 70.4696C0.605414 71.5293 1.29953 72.1718 2.23455 72.1469C3.24636 72.1198 3.91562 71.4721 3.95101 70.3927C4.0549 67.2113 5.04638 64.2738 6.37062 61.4275C7.03085 60.0077 7.79121 58.6384 8.93251 57.5425C9.19208 57.294 9.50833 57.1045 9.85458 56.8971L9.85462 56.8971L9.85466 56.8971C10.0225 56.7965 10.1975 56.6917 10.3764 56.5739C10.3845 56.6782 10.3923 56.7586 10.3987 56.8237L10.3987 56.8238C10.4096 56.9356 10.4161 57.0026 10.4118 57.0687C10.3746 57.625 10.3317 58.1813 10.2888 58.7375C10.1946 59.9595 10.1004 61.1816 10.0663 62.4051C10.0219 63.9846 10.0362 65.5753 10.1732 67.148C10.3524 69.2147 12.2992 70.1992 14.0917 69.2057C14.4003 69.0347 14.6894 68.8148 14.9499 68.5753C16.5572 67.0975 17.429 65.1776 18.1577 63.1741C18.1996 63.0588 18.25 62.9467 18.3004 62.8346L18.3005 62.8343C18.3234 62.7832 18.3464 62.7322 18.3685 62.6808C18.6365 62.9444 18.7472 63.199 18.8345 63.4618C18.9144 63.703 18.9872 63.9471 19.0601 64.1912C19.1975 64.6513 19.3349 65.1115 19.5189 65.552C20.5495 68.0224 23.3937 68.0744 24.7782 65.9994C25.1423 65.4535 25.4085 64.8401 25.6737 64.2291C25.7551 64.0418 25.8363 63.8546 25.9202 63.6697C26.0321 63.4232 26.1156 63.164 26.2152 62.8545C26.2651 62.6998 26.3189 62.5324 26.3824 62.3479C26.4514 62.5574 26.5111 62.7476 26.5665 62.9242C26.675 63.27 26.7672 63.5638 26.8808 63.849C27.3958 65.1422 28.0274 66.3805 29.5617 66.6486C31.2676 66.9461 32.771 66.5635 33.7158 64.9509C34.1871 64.1473 34.6463 63.3293 35.0182 62.4774C35.273 61.8931 35.4716 61.2838 35.6702 60.6747L35.6703 60.6743C35.7568 60.409 35.8433 60.1437 35.9344 59.8804L36.1045 59.8842C36.1476 60.0273 36.187 60.172 36.2264 60.3167L36.2264 60.3168L36.2264 60.3168C36.313 60.635 36.3996 60.9532 36.5254 61.255C36.6407 61.532 36.749 61.8148 36.8573 62.098C37.1641 62.8996 37.4722 63.7045 37.9467 64.3913C39.0572 65.9979 41.1463 66.2148 42.6369 64.9456C43.2645 64.4112 43.8198 63.7914 44.375 63.1718C44.6069 62.9128 44.8389 62.654 45.0761 62.4014C45.1997 62.2696 45.315 62.1301 45.4483 61.9688L45.4483 61.9687C45.5147 61.8884 45.5855 61.8028 45.664 61.7099C45.6961 61.8272 45.7252 61.9269 45.751 62.0154L45.7513 62.0162L45.7513 62.0163L45.7513 62.0164C45.7975 62.1747 45.8334 62.2975 45.8575 62.4224C46.3491 64.9901 48.7725 66.1455 51.095 64.9539C52.3402 64.3152 53.151 63.2773 53.9068 62.1618C54.0146 62.0028 54.1461 61.8599 54.2967 61.6962L54.2968 61.696L54.2969 61.696C54.3723 61.614 54.4525 61.5268 54.5369 61.4297C54.6028 61.6928 54.6619 61.9414 54.7185 62.1794L54.7186 62.1797L54.7186 62.1799L54.7186 62.1799C54.836 62.6735 54.9426 63.1221 55.0767 63.562C55.478 64.8771 57.1161 65.6898 58.4163 65.2499C59.8994 64.7483 60.9435 63.7066 61.8424 62.4819C62.0722 62.1681 62.3076 61.8586 62.5703 61.5133L62.5707 61.5129L62.5708 61.5128C62.7013 61.3412 62.8386 61.1607 62.9852 60.9665C63.0598 61.1979 63.1276 61.4104 63.1913 61.6103C63.3192 62.0115 63.4307 62.3615 63.5483 62.7094C63.869 63.6592 64.4525 64.4033 65.3634 64.8372C67.6633 65.9323 69.8992 65.5 71.6263 63.6366C72.0698 63.1578 72.5074 62.6733 72.9449 62.1889L72.9452 62.1886L72.9454 62.1884C73.4493 61.6305 73.9531 61.0726 74.4659 60.5236C74.6597 60.316 74.8856 60.1379 75.1116 59.9598C75.2061 59.8854 75.3006 59.8109 75.3927 59.7343L75.5726 59.8563C75.5215 60.0079 75.4682 60.1588 75.415 60.3097L75.4148 60.3103C75.2996 60.6367 75.1845 60.963 75.0908 61.2957C75.0049 61.6 74.9157 61.9038 74.8264 62.2077L74.8263 62.2079L74.8262 62.2082L74.8262 62.2083C74.5523 63.1407 74.2781 64.0739 74.1016 65.0247C73.9344 65.9263 74.7061 66.8339 75.5485 66.9891C76.5204 67.1676 77.533 66.6034 77.8394 65.7207L77.8407 65.7169C78.5479 63.6785 79.2552 61.6401 79.9752 59.6063C80.0776 59.3163 80.2093 59.0142 80.4043 58.7823C82.2886 56.534 84.6322 54.9056 87.3349 53.8059C87.5969 53.6993 87.9125 53.7237 88.2279 53.7481L88.228 53.7481C88.3738 53.7594 88.5195 53.7707 88.6599 53.769C88.6508 53.9113 88.6536 54.0585 88.6563 54.2058C88.6623 54.5246 88.6683 54.8433 88.5545 55.1112C87.5261 57.5267 85.7953 59.2628 83.2801 60.0755C82.8524 60.2137 82.3592 60.1553 81.8691 60.0974L81.869 60.0974C81.6698 60.0738 81.4712 60.0503 81.2776 60.0401C81.0937 60.0308 80.911 59.9967 80.7229 59.9616L80.7229 59.9616C80.6804 59.9537 80.6376 59.9457 80.5945 59.9379C80.5503 59.93 80.5058 59.9222 80.4608 59.9151C80.4728 60.0535 80.4842 60.1815 80.4951 60.3024L80.4952 60.3034C80.5183 60.5611 80.5385 60.7866 80.5549 61.0125C80.7017 63.0129 81.3777 64.8123 82.7644 66.269C84.7542 68.3584 87.3831 69.0219 89.8207 66.9386C90.4708 66.3832 91.0805 65.7809 91.6901 65.1786C91.9842 64.888 92.2783 64.5975 92.5769 64.3122C92.7997 64.0996 93.0247 63.8898 93.2577 63.6725C93.3837 63.5551 93.512 63.4354 93.6436 63.312C93.6436 63.6019 93.6413 63.879 93.6391 64.1474C93.6344 64.7046 93.6301 65.2243 93.6474 65.7433C93.7295 68.1866 96.0979 69.519 98.1666 68.2288C98.7016 67.8952 99.1619 67.4405 99.6217 66.9863L99.6217 66.9863L99.622 66.986C99.8149 66.7954 100.008 66.6049 100.206 66.4234C100.369 66.2746 100.523 66.1162 100.716 65.9182C100.814 65.8175 100.923 65.7065 101.047 65.5813C101.074 65.8477 101.094 66.0914 101.112 66.3193L101.113 66.3195C101.15 66.7779 101.183 67.1726 101.254 67.56C101.432 68.5323 101.693 69.4814 102.558 70.1088C103.929 71.1045 105.635 71.0985 107.055 70.157C109.154 68.7658 110.58 66.7774 111.939 64.7287C112.03 64.5919 112.061 64.4155 112.091 64.2389L112.091 64.2387C112.105 64.1567 112.12 64.0747 112.14 63.9966C112.12 63.9866 112.099 63.9764 112.079 63.9662L112.049 63.951C112.019 63.9358 111.988 63.9205 111.958 63.9055C111.889 63.9497 111.818 63.9918 111.748 64.0339L111.748 64.0339C111.595 64.1252 111.442 64.2164 111.307 64.3288C110.834 64.7204 110.365 65.1158 109.896 65.5111C108.985 66.2783 108.075 67.0453 107.143 67.7844C106.702 68.1347 106.153 68.3892 105.613 68.5662C104.725 68.857 104.007 68.1301 104.247 67.2436C104.272 67.1539 104.294 67.0627 104.316 66.9713C104.384 66.6908 104.452 66.4086 104.584 66.162L104.748 65.8549C105.476 64.4882 106.206 63.1206 107.002 61.7935C107.973 60.1764 106.555 58.8915 105.296 58.7845C104.233 58.6941 103.607 59.3185 103.171 60.2058C102.075 62.4413 100.495 64.3039 98.6786 65.976C98.1027 66.5055 97.4853 66.9928 96.6256 66.9559C96.2078 66.9378 95.9224 66.7525 95.9164 66.3232C95.9153 66.25 95.9139 66.1766 95.9125 66.1031C95.9025 65.5741 95.8923 65.0378 95.9895 64.5254C96.3817 62.4518 97.4643 60.6954 98.8126 59.14C99.6174 58.2128 100.583 57.3504 101.638 56.7358C102.86 56.0241 103.817 55.9269 104.638 57.2352C104.704 57.3398 104.793 57.4292 104.883 57.5187L104.883 57.5187C104.968 57.6046 105.054 57.6904 105.119 57.7896C105.678 58.6429 106.497 58.6625 107.364 58.5058C108.259 58.3439 109.053 57.12 108.688 56.3803C107.701 54.3844 106.092 53.18 103.867 52.9141C102.029 52.695 100.466 53.4203 99.0505 54.5214C97.4153 55.7936 96.2266 57.4235 95.3443 59.2786C94.9249 60.1591 94.4424 60.9628 93.606 61.5133C93.2068 61.7762 92.8139 62.0494 92.421 62.3226C91.7152 62.8134 91.0096 63.3041 90.2687 63.7338C88.1803 64.9441 86.1537 65.0488 84.1542 63.3203C83.646 62.8804 83.1643 62.4102 82.674 61.9316L82.6738 61.9315C82.448 61.7111 82.2204 61.4889 81.9875 61.267C82.332 61.2115 82.664 61.1663 82.9861 61.1224L82.9863 61.1224C83.6645 61.03 84.2985 60.9436 84.9115 60.7797C87.8694 59.9896 90.2551 58.3416 91.8587 55.7122C93.2755 53.3894 91.5011 50.3103 88.7939 50.2087C87.1489 50.1469 85.8127 50.8075 84.5652 51.764C84.2403 52.0131 83.9195 52.2674 83.5986 52.5216L83.5983 52.5218L83.4095 52.6713C83.3316 52.733 83.2536 52.7946 83.1755 52.8561L83.0422 52.7477C83.0732 52.6916 83.1025 52.6341 83.1318 52.5767C83.1973 52.4483 83.2629 52.3198 83.3471 52.2054C83.4554 52.0575 83.5632 51.9093 83.671 51.761C84.0877 51.188 84.5045 50.6149 84.9507 50.0656C87.1279 47.3872 88.9128 44.4618 90.3214 41.321C90.7527 40.3584 91.0328 39.3009 91.209 38.254C91.3738 37.2711 90.6918 36.3853 89.701 36.2829C88.5838 36.1676 87.6435 36.5736 86.7454 37.1611C84.7752 38.4513 83.5195 40.3373 82.4385 42.3559C80.1912 46.5519 78.5742 51.0131 77.0858 55.5164C76.5995 56.9867 76.0243 58.3258 74.8085 59.3389C74.4665 59.6236 74.1549 59.9445 73.8432 60.2656L73.8432 60.2657C73.6726 60.4415 73.5019 60.6173 73.3261 60.7873C73.2224 60.8874 73.1075 60.9757 72.9867 61.0685ZM67.7691 53.153C67.8489 53.0727 67.9389 52.9822 68.039 52.8727V52.8735C68.1218 54.6841 68.5201 56.1679 69.1231 57.6223C69.4762 58.475 69.8021 59.3984 69.8533 60.306C70.0099 63.0747 67.972 63.7918 65.8731 63.0777C64.9494 62.7636 64.7009 61.7913 64.6046 60.8792C64.4495 59.4089 64.8681 58.0599 65.5742 56.7908C66.1795 55.7032 66.7983 54.6231 67.4292 53.5498C67.5084 53.4154 67.6214 53.3016 67.7691 53.153ZM43.5011 36.6045C43.8738 35.9522 44.8758 36.1804 44.9413 36.9284H44.9406C44.9925 37.5106 44.9029 38.0687 44.7395 38.62C43.8211 41.727 42.5044 44.6652 40.8896 47.4693C40.7872 47.6471 40.6532 47.8097 40.4906 48.0026C40.3279 48.1954 40.0005 48.0651 40.0343 47.815C40.0358 47.806 40.0373 47.7969 40.0396 47.7879C40.1987 47.1682 40.3565 46.5481 40.5144 45.9279L40.5144 45.9276C41.0855 43.6838 41.6566 41.4398 42.2883 39.2128C42.5424 38.3172 43.0156 37.4715 43.4751 36.6504L43.4751 36.6503L43.4936 36.6173C43.4959 36.6135 43.4989 36.609 43.5011 36.6045ZM4.20169 52.0231C4.24549 52.0204 4.28947 52.0176 4.33344 52.0148C4.37767 52.012 4.4219 52.0092 4.46595 52.0065C5.63585 49.466 6.70939 46.8841 6.91793 44.0528C6.99848 42.9622 6.88555 41.8452 6.74026 40.7561C6.6597 40.1513 6.22155 40.0639 5.89558 40.5851C5.5026 41.2125 5.10209 41.9183 5.00347 42.6323C4.6634 45.0861 4.40822 47.5515 4.15311 50.0163L4.1531 50.0163L4.15299 50.0174C4.11786 50.3569 4.08272 50.6963 4.04737 51.0357C4.02468 51.2549 4.07933 51.4826 4.13392 51.7101C4.15903 51.8147 4.18414 51.9194 4.20169 52.0231ZM84.0804 48.1856L83.9471 48.0967L83.9464 48.0975C83.9775 47.993 84.0074 47.888 84.0372 47.783C84.1064 47.5398 84.1757 47.2966 84.2603 47.0588C85.3083 44.1176 86.5647 41.2788 88.4159 38.7413C88.6621 38.4046 88.9595 38.0823 89.296 37.8412C89.759 37.5098 89.9999 37.665 90.0594 38.2352C90.1881 39.4666 89.7613 40.5497 89.1951 41.6034C87.965 43.8939 86.4209 45.9479 84.578 47.7781C84.4743 47.8814 84.3571 47.9712 84.2401 48.0609C84.1864 48.1021 84.1327 48.1432 84.0804 48.1856ZM37.661 9.4353C37.6612 9.43535 37.6613 9.4354 37.6614 9.43544H37.6606C37.6608 9.4354 37.6609 9.43535 37.661 9.4353ZM37.0205 9.18192C37.2297 9.2629 37.4433 9.34559 37.661 9.4353C37.9151 9.34445 38.1671 9.26336 38.415 9.18358C38.9459 9.01276 39.4581 8.84795 39.9312 8.60618C41.4768 7.81608 41.217 5.45708 39.9613 4.84323C38.4737 4.11564 37.0079 4.16987 35.6009 5.10609C34.5575 5.80053 34.2225 7.8447 35.7319 8.62877C36.1391 8.84073 36.5696 9.00735 37.0205 9.18192Z" fill="white"/>
</svg>
