<svg width="105" height="67" viewBox="0 0 105 67" fill="none" xmlns="http://www.w3.org/2000/svg">
<path fill-rule="evenodd" clip-rule="evenodd" d="M68.1052 40.8419C65.8882 37.73 63.4371 34.879 60.4917 32.4764C60.5057 32.4527 60.5198 32.4291 60.534 32.4055C60.5482 32.3819 60.5623 32.3582 60.5763 32.3344C60.6415 32.3446 60.7074 32.3526 60.7732 32.3606C60.919 32.3783 61.0647 32.396 61.2034 32.4379C61.9809 32.6723 62.0319 32.6499 62.3199 31.7525C64.6054 33.8858 66.5279 36.2416 68.0527 39.0401C68.1467 38.9385 68.2306 38.8532 68.3057 38.7768L68.306 38.7765C68.447 38.6332 68.5568 38.5215 68.6435 38.3938C71.6224 34.0019 75.3173 30.3452 79.7693 27.4494C82.4916 25.6791 84.9449 23.5787 87.0562 21.111C90.7909 16.7457 91.3719 10.3618 87.6029 5.89927C85.0239 2.84616 81.6471 1.67667 77.7481 1.94316C74.0071 2.19846 71.505 4.1968 70.1249 7.6535C69.9543 8.08087 69.7621 8.49984 69.523 8.89993C69.6048 7.30378 70.0571 5.83073 70.9002 4.47938C72.8025 1.42977 75.6549 0.153961 79.1401 0.0133712C81.6772 -0.088749 84.0626 0.388978 86.3039 1.62211C89.1494 3.18819 91.002 5.54605 92.0346 8.59147C93.7712 13.7136 92.5576 18.239 89.2535 22.3399C86.1914 26.1408 82.3756 29.0113 78.1152 31.323C74.3497 33.3668 71.3253 36.2346 68.7987 39.6584C68.6273 39.8906 68.4879 40.1467 68.3373 40.4235C68.2642 40.5577 68.1885 40.6968 68.1052 40.8405V40.8419ZM42.236 20.6417L42.2356 20.6425L42.235 20.6438C42.1484 20.8291 42.0619 21.0144 41.9744 21.1991L41.9723 21.1984C41.8993 21.1859 41.8262 21.1727 41.7531 21.1595L41.7521 21.1593C41.744 21.1186 41.7318 21.0771 41.7195 21.0355C41.6929 20.9449 41.6662 20.854 41.6815 20.7711C41.7585 20.3486 41.8432 19.9279 41.9279 19.5072L41.9279 19.5071L41.9279 19.5069C42.0063 19.1176 42.0847 18.7283 42.1569 18.3377C42.4282 16.8737 42.6945 15.4098 42.949 13.943C43.0546 13.3366 42.8434 12.9155 42.2226 12.6882C41.1453 12.2937 40.27 12.7462 39.8904 14.0157C39.6512 14.8156 39.4279 15.6202 39.2047 16.4247L39.2046 16.4252L39.2046 16.4253C38.9248 17.4334 38.6452 18.4415 38.3341 19.44C38.123 20.1178 37.8545 20.8522 37.3931 21.3621C36.086 22.8065 34.7112 24.1904 33.337 25.5737L33.3352 25.5755C33.0923 25.82 32.8494 26.0645 32.6069 26.3093C32.3818 26.536 32.0721 26.7143 31.7687 26.8199C31.2192 27.0116 30.9039 26.7983 30.9269 26.2107C30.937 25.9582 30.941 25.7029 30.9451 25.4471C30.9587 24.596 30.9724 23.7381 31.2052 22.9492C31.6733 21.3644 32.2461 19.8101 32.8188 18.2559L32.8188 18.2559L32.8189 18.2558C33.0459 17.6397 33.2729 17.0237 33.4934 16.4058C33.5738 16.1806 33.6583 15.9568 33.7428 15.7329L33.7429 15.7328L33.7429 15.7328C33.8626 15.4156 33.9823 15.0985 34.0905 14.7774C34.3023 14.1486 34.0772 13.6443 33.5941 13.231C32.3944 12.2049 30.1383 12.8134 29.6944 14.3256C29.6175 14.5874 29.5402 14.8491 29.4629 15.1109C28.92 16.9493 28.3761 18.7908 27.9753 20.6613C27.5844 22.4819 27.4803 24.3642 27.8089 26.2198C28.034 27.4893 28.7093 28.5476 29.974 28.9533C31.2227 29.3534 32.479 29.1106 33.4585 28.1993C34.0985 27.6038 34.6796 26.9444 35.2606 26.2852C35.4856 26.0299 35.7106 25.7746 35.9389 25.5232C36.1292 25.313 36.3108 25.0948 36.4925 24.8767C36.5798 24.7717 36.6672 24.6668 36.7555 24.5628L36.9429 24.66C36.8974 24.8426 36.8547 25.0262 36.812 25.2097L36.8119 25.2101C36.7119 25.6396 36.6119 26.0693 36.4773 26.4877C36.3081 27.0109 36.3906 27.4599 36.687 27.8978C37.3106 28.819 38.4005 29.0932 39.4066 28.6266C40.1323 28.2902 40.4909 27.6894 40.716 26.9815C41.348 24.9972 42.2387 23.1345 43.393 21.4083C44.6493 19.5288 45.9461 17.6697 47.996 16.5387C48.2701 16.3874 48.561 16.2671 48.852 16.1468C48.9848 16.0919 49.1176 16.037 49.2488 15.9791L49.2602 15.9896C49.3066 16.0322 49.3525 16.0742 49.3984 16.1169C49.3583 16.2829 49.3202 16.4495 49.2821 16.6161C49.1979 16.9842 49.1137 17.3523 49.0083 17.7145C48.8268 18.3381 48.636 18.9595 48.4453 19.5808L48.4451 19.5815C48.0533 20.8575 47.6617 22.1334 47.35 23.4283C47.127 24.3537 47.1346 25.3637 47.2025 26.3233C47.287 27.5264 48.7146 28.6469 49.8717 28.4154C50.9386 28.2014 52.0145 27.8992 52.8576 27.1298L53.0169 26.9846C53.5759 26.4756 54.1369 25.9646 54.6432 25.4063C55.1962 24.7958 55.7223 24.1609 56.2598 23.5124L56.2599 23.5123L56.26 23.5122L56.2601 23.5121C56.4971 23.2261 56.7363 22.9374 56.981 22.647C56.9957 22.6894 57.0139 22.7321 57.0322 22.7753C57.0732 22.8718 57.1151 22.9703 57.1209 23.0709C57.1323 23.2751 57.133 23.4803 57.1337 23.6854C57.1346 23.9572 57.1355 24.229 57.1614 24.4985C57.3089 26.0205 57.8962 27.2837 59.4405 27.8174C60.7982 28.2867 62.0308 27.9209 63.0361 26.9312C63.4876 26.4866 63.8965 25.9985 64.3054 25.5103L64.3055 25.5101C64.4936 25.2855 64.6818 25.0609 64.8741 24.8405C64.9457 24.7585 65.0199 24.6789 65.0978 24.5953L65.0979 24.5952C65.1416 24.5482 65.1865 24.5 65.2328 24.4495C65.2662 24.4937 65.2954 24.5277 65.3195 24.5557C65.3609 24.6039 65.3871 24.6344 65.3929 24.6684C65.418 24.8204 65.4337 24.9744 65.4494 25.1283C65.4547 25.1797 65.46 25.2312 65.4656 25.2825C65.6278 26.7696 66.301 27.9174 67.7041 28.5357C69.6379 29.3876 71.3368 28.9442 72.8294 27.5257C74.4108 26.0233 75.5511 24.204 76.5403 22.2819C76.5948 22.1762 76.5879 22.0392 76.5809 21.902C76.5777 21.8385 76.5745 21.775 76.5774 21.7146C76.513 21.7238 76.445 21.7272 76.377 21.7305C76.2266 21.738 76.0764 21.7455 75.9657 21.8153C75.7985 21.921 75.6601 22.0717 75.5217 22.2223L75.5217 22.2224C75.4621 22.2873 75.4025 22.3521 75.3406 22.4134C75.037 22.7139 74.7356 23.0167 74.4341 23.3195L74.434 23.3195L74.434 23.3196C73.6983 24.0585 72.9626 24.7974 72.196 25.5029C71.7171 25.9435 71.1487 26.3226 70.5608 26.6024C69.4981 27.1081 68.7724 26.5933 68.8724 25.4294C68.9248 24.8174 69.015 24.1809 69.2387 23.6157C69.4719 23.0284 69.7439 22.4566 70.0161 21.8846C70.2498 21.3933 70.4836 20.9019 70.6929 20.4004C70.8656 19.9863 71.0229 19.4701 70.9278 19.0602C70.7495 18.2887 69.8274 17.6851 69.1115 17.6914C67.5783 17.7047 66.954 18.0537 66.58 19.1015C65.6564 21.6901 64.1491 23.8843 62.0881 25.6945C61.8001 25.9477 61.4505 26.1673 61.0912 26.2981C60.4144 26.5444 59.802 26.1576 59.76 25.4413L59.7498 25.2695C59.7083 24.5812 59.6655 23.8719 59.8062 23.2122C60.4116 20.371 61.9168 18.0593 64.233 16.3176C65.5229 15.3482 66.7128 15.3706 67.7028 16.4191C68.5403 17.3053 69.5142 17.3235 70.5538 17.1815C71.1382 17.1017 71.6024 16.7317 71.7716 16.1547C71.9429 15.5727 71.829 15.0286 71.3557 14.5641C68.8549 12.1132 65.3684 11.7299 62.4328 13.6296C60.3284 14.9915 59.1015 17.0325 58.1388 19.2735L58.0893 19.3893L58.0893 19.3894C57.9108 19.8083 57.724 20.2464 57.4278 20.5703C55.6352 22.5344 53.7127 24.3495 51.2574 25.4819C51.1199 25.5454 50.9571 25.5528 50.7942 25.5603C50.7184 25.5637 50.6427 25.5672 50.5694 25.5763C50.5733 25.5421 50.5772 25.508 50.581 25.4738L50.5835 25.4504L50.5895 25.3967L50.5895 25.3965L50.5895 25.3963C50.6064 25.2427 50.6233 25.089 50.6449 24.9356C50.6533 24.8755 50.6806 24.816 50.7085 24.7607C51.0056 24.1705 51.3039 23.5809 51.6023 22.9913L51.6028 22.9902C52.1994 21.811 52.796 20.6318 53.3827 19.4477C53.4366 19.3389 53.4908 19.2302 53.545 19.1215C54.1176 17.9742 54.6902 16.827 54.8613 15.5217C55.1165 13.5765 54.0308 12.0118 52.1347 11.7642C50.3681 11.5341 48.7014 11.8502 47.2961 13.0316C45.2344 14.7649 43.9865 17.0779 42.8113 19.4365C42.6128 19.8346 42.4245 20.2379 42.2363 20.641L42.2361 20.6413L42.236 20.6417ZM67.779 56.7115C67.7267 56.7517 67.6732 56.7927 67.619 56.8363L67.6204 56.8342C67.5986 56.7938 67.5783 56.7612 67.561 56.7335C67.5302 56.6841 67.5091 56.6502 67.5065 56.6153C67.5011 56.5461 67.5035 56.4765 67.5058 56.4069V56.4068V56.4067C67.5084 56.3314 67.5109 56.2561 67.5037 56.1816C67.4657 55.7926 67.4386 55.4011 67.4114 55.0096V55.0095C67.3483 54.1017 67.2852 53.1939 67.0884 52.3157C66.7165 50.6566 67.001 49.2122 67.9364 47.8371C68.114 47.5755 68.2573 47.2503 68.2916 46.9404C68.3908 46.0451 67.9119 45.4758 67.1562 45.0547C66.3893 44.6273 65.6587 44.5658 64.9749 45.161C64.6366 45.4562 64.3115 45.794 64.071 46.1703C63.39 47.2346 62.7186 48.3049 62.0472 49.3753L62.0466 49.3762C61.2673 50.6186 60.488 51.8609 59.6938 53.0935C58.3885 55.1198 56.6065 56.7062 54.7629 58.2177C54.5665 58.3788 54.2914 58.4439 54.0163 58.5089C53.889 58.539 53.7617 58.5691 53.6422 58.6087C53.6113 58.4826 53.5668 58.3541 53.5223 58.2255C53.4248 57.9439 53.3272 57.6621 53.3723 57.4057L53.4066 57.2086L53.4489 56.9632C53.6476 55.8081 53.8485 54.6403 54.2532 53.5545C54.8131 52.0526 55.4557 50.5814 56.0983 49.1101L56.0984 49.1099C56.4155 48.3838 56.7327 47.6577 57.0399 46.9278C57.4727 45.8989 56.9218 44.8875 55.8193 44.6364C54.628 44.365 53.8596 44.6154 53.4472 45.7374C52.6502 47.905 51.8818 50.0971 51.3309 52.336C50.8038 54.477 49.9292 56.3453 48.303 57.8351C47.6871 58.3989 46.974 58.7255 46.1008 58.6346C45.645 58.587 45.3989 58.3576 45.3989 57.9302C45.3996 57.3959 45.4164 56.8503 45.5205 56.3285C46.0714 53.5775 47.3075 51.0966 48.612 48.6464C48.7134 48.4564 48.8209 48.2694 48.9283 48.0824C49.0787 47.8206 49.2291 47.5589 49.3629 47.2888C49.7432 46.5208 49.6642 45.4485 49.221 44.9966C48.5603 44.3238 47.5382 44.1755 46.6356 44.5952C45.8939 44.94 45.5415 45.6206 45.2668 46.2976L45.2408 46.3616L45.2408 46.3616C44.4901 48.2142 43.7371 50.0728 43.1295 51.9758C42.3283 54.4854 41.0818 56.6866 39.0243 58.3401C37.7456 59.3676 37.3066 59.1515 36.8773 57.5742C36.4624 56.0512 36.4858 54.5039 36.5093 52.9569V52.9568V52.9567C36.5169 52.4576 36.5244 51.9585 36.5173 51.4603C36.5138 51.2526 36.6059 51.0387 36.6946 50.8326C36.7143 50.7868 36.7339 50.7414 36.7522 50.6965C37.162 49.6917 37.5789 48.6896 37.9958 47.6874L37.996 47.6869C38.9126 45.4835 39.8293 43.2799 40.6707 41.0482C41.2833 39.4231 41.7806 37.7532 42.2777 36.0842C42.4535 35.494 42.6292 34.9039 42.81 34.316C43.0575 33.5116 42.9555 32.7387 42.3221 32.1344C41.7096 31.5497 40.9518 31.6441 40.2142 31.8231C39.9388 31.8903 39.6675 32.0211 39.4249 32.1715C38.0903 32.9989 37.1073 34.1523 36.3593 35.5218C35.0225 37.9692 34.371 40.6474 33.818 43.3417C33.1601 46.5438 33.1608 49.8012 33.2195 53.0564C33.2258 53.4181 33.1881 53.8293 33.021 54.1357C32.3295 55.4066 31.5941 56.6537 30.8453 57.8918C30.6313 58.2452 30.3686 58.5706 30.1068 58.8949L30.1068 58.895L30.1068 58.895C30.0427 58.9744 29.9787 59.0537 29.9155 59.1333C29.5212 59.6299 28.9807 59.8684 28.3788 59.7013C27.8083 59.5432 27.7517 58.9598 27.709 58.4772C27.6615 57.9456 27.6664 57.3931 27.7573 56.8685C27.9354 55.839 28.1567 54.8167 28.378 53.7945L28.3784 53.7924C28.415 53.6236 28.4515 53.4547 28.4879 53.2859C28.6962 52.3171 28.4837 51.71 27.765 51.305C26.4597 50.5692 25.0783 51.2141 24.8063 52.6899C24.4113 54.8324 23.924 56.9545 22.8369 58.8647C22.5298 59.4038 22.1124 59.8813 21.6965 60.3572C21.5565 60.5173 21.4167 60.6772 21.2813 60.8393C21.0248 61.1463 20.7395 61.0386 20.4725 60.8113C19.8943 60.3182 19.7076 59.6607 19.6482 58.9361C19.5175 57.342 19.7852 55.7962 20.2341 54.2805C20.6423 52.9026 21.2296 51.6023 22.1881 50.5062C23.1774 49.3745 23.8282 49.2598 25.1293 49.9516C25.1871 49.9824 25.2429 50.0206 25.2986 50.0586C25.4007 50.1282 25.5023 50.1976 25.6145 50.2216C25.7255 50.2453 25.8373 50.2718 25.9496 50.2984L25.9496 50.2984C26.3576 50.3952 26.7712 50.4933 27.1714 50.4615C27.8237 50.4097 28.3501 49.9872 28.5235 49.3389C28.6934 48.7044 28.671 48.0155 28.0733 47.579C26.8079 46.6557 25.4034 46.0367 23.8031 46.2067C21.8469 46.4151 20.4662 47.5874 19.4203 49.1591C18.2269 50.9525 17.7088 52.9914 17.4187 55.1031C17.3551 55.5633 17.2747 56.0816 17.0202 56.446C15.9077 58.0383 14.7376 59.5916 13.5683 61.1437L13.5682 61.1438L13.5337 61.1897C13.3295 61.4614 13.0456 61.6803 12.7723 61.891L12.7584 61.9017C12.6465 61.9878 12.4207 62.0612 12.3312 62.0053C12.227 61.9402 12.1865 61.7297 12.1725 61.5772C12.1637 61.4747 12.1931 61.368 12.2223 61.2622C12.2324 61.2257 12.2424 61.1894 12.2508 61.1533L12.5069 60.0583L12.5069 60.0583L12.5069 60.0582C12.8687 58.511 13.2305 56.9639 13.5959 55.4178L13.6267 55.2875C13.9783 53.801 14.3285 52.3199 14.158 50.7629C14.0084 49.3934 12.9583 48.1897 11.5936 48.0617C9.38721 47.8546 7.79042 48.901 6.72426 50.7385C5.40502 53.0131 4.6318 55.4975 4.19834 58.0883C4.18347 58.1771 4.15643 58.2636 4.12941 58.35C4.11704 58.3895 4.10467 58.4291 4.09347 58.4688L3.93268 58.4765C3.90909 58.354 3.88203 58.2317 3.85496 58.1095C3.79457 57.8367 3.73418 57.5639 3.71245 57.2881C3.61038 55.9753 3.7558 54.6806 4.13962 53.4216C4.39975 52.5682 4.67003 51.7177 4.9403 50.8673L4.94031 50.8673L4.94036 50.8671L4.94038 50.8671C5.42766 49.3338 5.91489 47.8007 6.34254 46.2508C7.0934 43.5285 7.53944 40.7517 7.31222 37.907C7.17729 36.2234 6.18035 35.7981 4.71989 36.3577C4.16618 36.5703 3.5992 36.976 3.25243 37.4502C2.61204 38.326 1.96535 39.2611 1.61999 40.2732C1.1306 41.7092 0.79153 43.2221 0.606263 44.7288C0.323819 47.0279 0.152534 49.3472 0.0700383 51.6624C-0.0942549 56.2613 0.027392 60.8582 0.467838 65.4417C0.562219 66.4258 1.20681 67.0224 2.07511 66.9994C3.01473 66.9742 3.63625 66.3727 3.66911 65.3703C3.76559 62.4158 4.68633 59.688 5.91608 57.0447C6.52921 55.7263 7.23532 54.4547 8.29519 53.437C8.53625 53.2061 8.82996 53.0302 9.15153 52.8376C9.30744 52.7442 9.4699 52.6469 9.6361 52.5375C9.64356 52.6343 9.65084 52.709 9.65674 52.7695C9.66686 52.8733 9.67293 52.9356 9.66896 52.997C9.63441 53.5135 9.59459 54.03 9.55477 54.5465L9.55476 54.5466L9.55475 54.5467C9.46727 55.6815 9.37977 56.8164 9.34806 57.9526C9.30681 59.4194 9.3201 60.8966 9.44734 62.3571C9.61373 64.2764 11.4216 65.1906 13.0863 64.268C13.3729 64.1092 13.6414 63.905 13.8833 63.6825C15.3759 62.3102 16.1855 60.5273 16.8622 58.6668C16.9011 58.5597 16.9479 58.4555 16.9947 58.3514C17.016 58.3039 17.0374 58.2564 17.058 58.2086C17.3068 58.4534 17.4096 58.6898 17.4907 58.934C17.5648 59.1579 17.6325 59.3846 17.7002 59.6112C17.8278 60.0386 17.9554 60.4659 18.1262 60.8749C19.0833 63.1692 21.7246 63.2174 23.0103 61.2904C23.3484 60.7835 23.5957 60.2139 23.8419 59.6465L23.8421 59.6461C23.9176 59.4723 23.9929 59.2986 24.0708 59.127C24.1748 58.8981 24.2523 58.6573 24.3448 58.37C24.3911 58.2263 24.4411 58.0709 24.5001 57.8995C24.5641 58.0941 24.6196 58.2707 24.671 58.4347C24.7718 58.7558 24.8574 59.0286 24.9629 59.2935C25.4411 60.4944 26.0277 61.6443 27.4525 61.8933C29.0367 62.1696 30.4328 61.8143 31.3102 60.3168C31.7479 59.5705 32.1743 58.8109 32.5197 58.0198C32.7563 57.4771 32.9407 56.9114 33.1251 56.3458L33.1251 56.3457L33.1251 56.3457C33.2055 56.0991 33.2859 55.8526 33.3705 55.6081L33.5285 55.6116C33.5685 55.7445 33.6051 55.8788 33.6417 56.0132C33.7221 56.3087 33.8025 56.6042 33.9193 56.8846C34.0264 57.1417 34.1269 57.4042 34.2275 57.667L34.2275 57.6672L34.2276 57.6674C34.5125 58.4118 34.7986 59.1593 35.2393 59.7971C36.2705 61.289 38.2105 61.4905 39.5948 60.3119C40.1776 59.8156 40.6933 59.24 41.2088 58.6646C41.4243 58.4241 41.6397 58.1837 41.8599 57.9491C41.9748 57.8268 42.0818 57.6972 42.2056 57.5474C42.2672 57.4728 42.333 57.3933 42.406 57.307C42.4358 57.4163 42.4629 57.509 42.487 57.5914L42.487 57.5916C42.5299 57.7386 42.5632 57.8526 42.5856 57.9687C43.0422 60.3531 45.2926 61.4261 47.4494 60.3196C48.6057 59.7264 49.3587 58.7626 50.0606 57.7267C50.1608 57.579 50.283 57.4461 50.4229 57.2941C50.4929 57.2179 50.5674 57.1369 50.6458 57.0468C50.707 57.2913 50.7619 57.5222 50.8145 57.7434L50.8145 57.7434C50.9235 58.2019 51.0226 58.6184 51.1471 59.027C51.5197 60.2482 53.041 61.0029 54.2483 60.5945C55.6256 60.1286 56.5953 59.1613 57.43 58.024C57.6435 57.7323 57.8623 57.4447 58.1065 57.1238L58.1072 57.1229C58.2282 56.9639 58.3554 56.7966 58.4913 56.6167C58.5606 56.8315 58.6235 57.0289 58.6827 57.2145C58.8014 57.5871 58.905 57.9121 59.0142 58.2352C59.3121 59.1172 59.8539 59.8083 60.6998 60.2112C62.8356 61.2282 64.912 60.8267 66.5158 59.0962C66.9278 58.6515 67.3342 58.2015 67.7406 57.7516L67.7411 57.751L67.7413 57.7508C68.2091 57.2329 68.6768 56.715 69.1529 56.2054C69.3328 56.0125 69.5427 55.8472 69.7525 55.6818C69.8402 55.6126 69.928 55.5435 70.0135 55.4724L70.1806 55.5857C70.133 55.7266 70.0835 55.867 70.034 56.0073C69.927 56.3104 69.8201 56.6134 69.7332 56.9223C69.6534 57.205 69.5705 57.4871 69.4876 57.7694C69.2331 58.6354 68.9785 59.5022 68.8145 60.3853C68.6593 61.2226 69.3759 62.0654 70.1582 62.2095C71.0608 62.3753 72.0011 61.8514 72.2856 61.0316C72.9428 59.1375 73.6 57.2434 74.269 55.3535C74.3641 55.0842 74.4865 54.8037 74.6675 54.5883C76.4174 52.5004 78.5938 50.9882 81.1036 49.967C81.347 49.8679 81.6401 49.8906 81.933 49.9133L81.9331 49.9133C82.0684 49.9238 82.2037 49.9342 82.3341 49.9327C82.3257 50.0647 82.3283 50.2014 82.3308 50.338V50.3383C82.3364 50.6343 82.3419 50.9303 82.2362 51.1791C81.2812 53.4223 79.6739 55.0345 77.3382 55.7892C76.941 55.9175 76.483 55.8634 76.0278 55.8095C75.8428 55.7877 75.6583 55.7658 75.4785 55.7563C75.3078 55.7477 75.138 55.716 74.9634 55.6834C74.8834 55.6685 74.8025 55.6534 74.72 55.6402C74.7311 55.7687 74.7418 55.8875 74.7518 55.9997V55.9997C74.7733 56.2395 74.7921 56.4492 74.8074 56.6593C74.9437 58.5171 75.5715 60.1881 76.8593 61.5408C78.7071 63.4811 81.1484 64.0973 83.4121 62.1626C84.0157 61.647 84.5818 61.0877 85.1479 60.5284L85.148 60.5283L85.1481 60.5282L85.1488 60.5275C85.4217 60.2579 85.6945 59.9883 85.9716 59.7236C86.1785 59.5261 86.3875 59.3313 86.6039 59.1296C86.6593 59.0779 86.7151 59.0259 86.7716 58.9732C86.8344 58.9146 86.8979 58.8552 86.9623 58.7948C86.9623 59.0636 86.9601 59.3206 86.958 59.5696V59.5701V59.5705C86.9537 60.088 86.9497 60.5706 86.9658 61.0526C87.042 63.3216 89.2414 64.559 91.1626 63.3608C91.6594 63.0509 92.0868 62.6287 92.5138 62.2069C92.6931 62.0298 92.8723 61.8528 93.0565 61.6842C93.2076 61.546 93.351 61.399 93.5303 61.2151L93.5303 61.215C93.6215 61.1215 93.7219 61.0185 93.8374 60.9022C93.8622 61.1493 93.8808 61.3754 93.8982 61.5869L93.8982 61.5875V61.5875C93.9332 62.0133 93.9634 62.3799 94.0297 62.7397C94.1954 63.6427 94.4373 64.524 95.2406 65.1066C96.5136 66.0313 98.0979 66.0257 99.4171 65.1514C101.366 63.8595 102.69 62.013 103.952 60.1104C104.037 59.9834 104.065 59.8195 104.094 59.6555C104.107 59.5793 104.12 59.5031 104.139 59.4306C104.111 59.4165 104.082 59.4023 104.054 59.3881L104.029 59.3753L103.97 59.3459C103.906 59.387 103.84 59.4261 103.775 59.4652C103.633 59.55 103.491 59.6347 103.365 59.739C102.926 60.1027 102.491 60.4698 102.055 60.837L102.055 60.8372C101.209 61.5496 100.364 62.2618 99.4982 62.9481C99.0885 63.2734 98.5788 63.5098 98.0776 63.6742C97.2533 63.9441 96.5863 63.2692 96.8094 62.4459C96.8319 62.3626 96.8524 62.2779 96.8729 62.193L96.873 62.1929C96.9361 61.9324 96.9995 61.6704 97.1219 61.4415L97.2742 61.1559C97.9509 59.8868 98.628 58.617 99.3674 57.3847C100.269 55.8829 98.9522 54.6897 97.7832 54.5904C96.7961 54.5064 96.2144 55.0863 95.8103 55.9102C94.7924 57.9862 93.325 59.7159 91.638 61.2687C91.1032 61.7605 90.5299 62.213 89.7315 62.1787C89.3435 62.1619 89.0785 61.9899 89.0729 61.5912L89.0715 61.5074L89.0693 61.3867V61.3865C89.06 60.8954 89.0505 60.3974 89.1407 59.9216C89.505 57.996 90.5103 56.3649 91.7624 54.9205C92.5098 54.0595 93.4068 53.2586 94.3862 52.6878C95.5209 52.0269 96.4095 51.9366 97.1722 53.1516C97.2332 53.2487 97.3163 53.3317 97.3993 53.4148C97.479 53.4945 97.5587 53.5742 97.619 53.6664C98.1377 54.4589 98.8983 54.477 99.7037 54.3316C100.535 54.1812 101.273 53.0446 100.933 52.3577C100.016 50.5041 98.5229 49.3857 96.4563 49.1388C94.7491 48.9353 93.2977 49.6088 91.9833 50.6314C90.4649 51.8128 89.3609 53.3264 88.5416 55.0492C88.1522 55.8669 87.704 56.6132 86.9273 57.1245C86.5566 57.3686 86.1917 57.6223 85.8269 57.876L85.8268 57.876C85.1714 58.3318 84.5162 58.7874 83.8281 59.1865C81.8888 60.3105 80.0067 60.4077 78.1499 58.8025C77.6779 58.394 77.2306 57.9574 76.7753 57.513L76.7751 57.5128L76.7749 57.5125L76.7733 57.5109C76.5642 57.3068 76.3534 57.1011 76.1378 56.8957C76.4576 56.8442 76.7659 56.8022 77.0649 56.7615L77.0653 56.7614L77.0654 56.7614L77.0655 56.7614C77.6952 56.6756 78.284 56.5954 78.8532 56.4432C81.6 55.7095 83.8155 54.1791 85.3047 51.7373C86.6204 49.5802 84.9726 46.7208 82.4585 46.6264C80.931 46.569 79.69 47.1824 78.5316 48.0707C78.2299 48.3021 77.932 48.5381 77.634 48.7742L77.6333 48.7748C77.5027 48.8783 77.372 48.9818 77.241 49.085L77.1173 48.9842C77.146 48.9321 77.1732 48.8788 77.2005 48.8254C77.2613 48.7062 77.3222 48.5869 77.4004 48.4806C77.501 48.3434 77.601 48.2057 77.7011 48.0681L77.7012 48.068L77.7013 48.0678C78.0883 47.5357 78.4752 47.0036 78.8895 46.4935C80.9114 44.0062 82.569 41.2895 83.8771 38.3728C84.2776 37.4789 84.5377 36.4969 84.7013 35.5246C84.8544 34.6119 84.221 33.7893 83.301 33.6942C82.2635 33.5872 81.3903 33.9642 80.5562 34.5097C78.7266 35.7079 77.5605 37.4593 76.5566 39.3339C74.4697 43.2305 72.968 47.3734 71.5858 51.5554C71.1342 52.9208 70.6001 54.1644 69.471 55.1051C69.1534 55.3696 68.8641 55.6676 68.5746 55.9658C68.4161 56.1291 68.2576 56.2923 68.0944 56.4502C67.9981 56.5432 67.8914 56.6252 67.7792 56.7113L67.779 56.7115ZM62.9338 49.3606C63.008 49.286 63.0915 49.202 63.1845 49.1003V49.101C63.2614 50.7825 63.6312 52.1604 64.1912 53.5111C64.5191 54.3029 64.8218 55.1604 64.8694 56.0032C65.0148 58.5744 63.1223 59.2403 61.1731 58.5772C60.3153 58.2856 60.0846 57.3826 59.9951 56.5355C59.8511 55.1702 60.2398 53.9175 60.8956 52.7389C61.4577 51.7289 62.0323 50.7259 62.6182 49.7291C62.6917 49.6043 62.7967 49.4986 62.9338 49.3606ZM40.3974 33.9928C40.7434 33.3871 41.674 33.599 41.7348 34.2936H41.7341C41.7823 34.8343 41.6991 35.3526 41.5474 35.8646C40.6945 38.7498 39.4717 41.4784 37.9721 44.0825C37.8771 44.2475 37.7526 44.3986 37.6016 44.5777C37.4506 44.7567 37.1465 44.6357 37.1779 44.4035L37.178 44.4033L37.178 44.4031L37.178 44.403C37.1794 44.3948 37.1808 44.3866 37.1828 44.3783C37.3299 43.8054 37.4758 43.2321 37.6217 42.6587L37.6227 42.655L37.6237 42.6512L37.6237 42.651L37.6238 42.6508C38.1541 40.5671 38.6845 38.4831 39.2711 36.415C39.507 35.5834 39.9465 34.798 40.3732 34.0355L40.3904 34.0047C40.3925 34.0012 40.3953 33.997 40.3974 33.9928ZM4.02123 48.3039L4.02143 48.3038L4.02426 48.3037L4.02706 48.3035C4.0672 48.3009 4.10734 48.2984 4.14731 48.296C5.23374 45.9367 6.23068 43.539 6.42434 40.9097C6.49915 39.8969 6.39428 38.8596 6.25935 37.8482C6.18454 37.2866 5.77765 37.2054 5.47494 37.6895C5.10999 38.2721 4.73806 38.9275 4.64648 39.5906C4.33067 41.8693 4.0937 44.1588 3.85679 46.4477L3.8566 46.4495C3.824 46.7645 3.7914 47.0794 3.7586 47.3944C3.73753 47.598 3.78827 47.8094 3.83897 48.0207C3.86229 48.1179 3.88561 48.215 3.90191 48.3113C3.94157 48.3089 3.9814 48.3064 4.02123 48.3039ZM78.0813 44.7476L77.9576 44.6651L77.9569 44.6658C77.9857 44.5689 78.0135 44.4716 78.0412 44.3742L78.0413 44.3737L78.0413 44.3735C78.1056 44.1478 78.1699 43.922 78.2484 43.7013C79.2216 40.9699 80.3884 38.3336 82.1076 35.9772C82.3362 35.6645 82.6123 35.3652 82.9249 35.1413C83.3548 34.8336 83.5785 34.9777 83.6338 35.5072C83.7533 36.6508 83.3569 37.6566 82.8312 38.6351C81.6888 40.7621 80.2549 42.6696 78.5435 44.3692C78.4472 44.4651 78.3384 44.5485 78.2298 44.6318L78.2297 44.6318C78.1798 44.6701 78.1299 44.7083 78.0813 44.7476ZM34.974 8.762C34.9741 8.76205 34.9742 8.76209 34.9743 8.76214H34.9736C34.9737 8.76209 34.9738 8.76205 34.974 8.762ZM34.3791 8.5267C34.5734 8.6019 34.7717 8.67869 34.974 8.762C35.2098 8.67763 35.4439 8.60233 35.6741 8.52824C36.1671 8.36961 36.6428 8.21656 37.0821 7.99204C38.5174 7.25831 38.2762 5.06762 37.1101 4.49757C35.7286 3.82189 34.3674 3.87226 33.0608 4.74168C32.0918 5.38657 31.7807 7.28489 33.1824 8.01302C33.5606 8.20985 33.9603 8.36458 34.3791 8.5267Z" fill="#2A2A2A"/>
</svg>
